<svg width="229" height="35" viewBox="0 0 229 35" fill="none" xmlns="http://www.w3.org/2000/svg">
<path d="" fill="#334155"/>
<g clip-path="url(#clip0)">
<path d="M21.8036 9.91071V7.92857C21.8036 3.55671 18.2468 0 13.875 0C9.50314 0 5.94643 3.55671 5.94643 7.92857V9.91071H0V26.7589C0 29.4957 2.21858 31.7143 4.95536 31.7143H22.7946C25.5314 31.7143 27.75 29.4957 27.75 26.7589V9.91071H21.8036ZM9.91071 7.92857C9.91071 5.74264 11.6891 3.96429 13.875 3.96429C16.0609 3.96429 17.8393 5.74264 17.8393 7.92857V9.91071H9.91071V7.92857ZM19.8214 15.3616C19.0004 15.3616 18.3348 14.696 18.3348 13.875C18.3348 13.054 19.0004 12.3884 19.8214 12.3884C20.6425 12.3884 21.308 13.054 21.308 13.875C21.308 14.696 20.6425 15.3616 19.8214 15.3616ZM7.92857 15.3616C7.10753 15.3616 6.44196 14.696 6.44196 13.875C6.44196 13.054 7.10753 12.3884 7.92857 12.3884C8.74961 12.3884 9.41518 13.054 9.41518 13.875C9.41518 14.696 8.74961 15.3616 7.92857 15.3616Z" fill="#10B981"/>
</g>
<defs>
<clipPath id="clip0">
<rect width="27.75" height="31.7143" fill="white"/>
</clipPath>
</defs>
</svg>
